<svg xmlns="http://www.w3.org/2000/svg" viewBox="0 0 84.32 122.77"><defs><style>.cls-1{fill:#de8b2e;}.cls-1,.cls-2,.cls-3{stroke:#455883;stroke-linecap:round;stroke-linejoin:round;}.cls-2{fill:#fafcfd;}.cls-3{fill:#f2ed7d;}</style></defs><title>escudo</title><g id="Capa_2" data-name="Capa 2"><g id="Grid_Template" data-name="Grid Template"><path class="cls-1" d="M83.82,56.11c-.44,15.12-6.16,29.82-17,43.7a112.44,112.44,0,0,1-23,21.92,3,3,0,0,1-3.4,0,112.44,112.44,0,0,1-23-21.92C6.65,85.93.94,71.23.5,56.11a1.25,1.25,0,0,1,.76-1.19c8-3.3,12.57-10.17,13.11-19.85a1.27,1.27,0,0,1,1.27-1.19h53a1.25,1.25,0,0,1,1.26,1.19c.55,9.68,5.08,16.55,13.12,19.85a1.25,1.25,0,0,1,.76,1.19Z"/><path class="cls-2" d="M77,59.72c-.36,12.63-5.14,24.92-14.19,36.52a94.57,94.57,0,0,1-19.2,18.32,2.47,2.47,0,0,1-2.84,0,94,94,0,0,1-19.2-18.32c-9-11.6-13.83-23.89-14.19-36.52a1,1,0,0,1,.63-1c6.71-2.76,10.5-8.49,11-16.58a1.06,1.06,0,0,1,1.06-1H64.32a1.06,1.06,0,0,1,1.06,1c.45,8.09,4.24,13.82,11,16.58a1.06,1.06,0,0,1,.63,1Z"/><path class="cls-2" d="M29.78,67.1V61.91A12.85,12.85,0,0,1,42.62,49.07h0A12.85,12.85,0,0,1,55.45,61.91V67.1"/><path class="cls-2" d="M35.23,67.1V61.91a7.39,7.39,0,1,1,14.77,0V67.1h0"/><path class="cls-2" d="M58.3,86.18a1.07,1.07,0,0,1-1.07,1.06H28a1.06,1.06,0,0,1-1.06-1.06V68.36A1.06,1.06,0,0,1,28,67.29H57.23a1.07,1.07,0,0,1,1.07,1.07V86.18Z"/><path class="cls-3" d="M42.26.73,44.7,5.68A.42.42,0,0,0,45,5.9l5.46.79a.41.41,0,0,1,.23.7l-4,3.86a.39.39,0,0,0-.12.36l.93,5.44a.41.41,0,0,1-.59.43l-4.89-2.57a.42.42,0,0,0-.38,0l-4.88,2.57a.41.41,0,0,1-.6-.43l.94-5.44a.39.39,0,0,0-.12-.36L33.09,7.39a.41.41,0,0,1,.23-.7l5.46-.79a.4.4,0,0,0,.3-.22L41.53.73A.4.4,0,0,1,42.26.73Z"/><path class="cls-3" d="M58,12.84l1.46,3a.29.29,0,0,0,.24.17l3.26.48a.32.32,0,0,1,.18.55l-2.36,2.3a.3.3,0,0,0-.09.28l.55,3.25a.32.32,0,0,1-.46.34l-2.92-1.53a.32.32,0,0,0-.3,0l-2.92,1.53a.32.32,0,0,1-.46-.34l.55-3.25a.3.3,0,0,0-.09-.28L52.29,17a.32.32,0,0,1,.18-.55L55.73,16A.31.31,0,0,0,56,15.8l1.46-3A.32.32,0,0,1,58,12.84Z"/><path class="cls-3" d="M26.89,12.84l1.45,3a.32.32,0,0,0,.25.17l3.26.48A.32.32,0,0,1,32,17l-2.36,2.3a.33.33,0,0,0-.1.28l.56,3.25a.32.32,0,0,1-.47.34l-2.91-1.53a.32.32,0,0,0-.3,0l-2.92,1.53a.33.33,0,0,1-.47-.34l.56-3.25a.32.32,0,0,0-.09-.28L21.17,17a.32.32,0,0,1,.18-.55L24.61,16a.32.32,0,0,0,.24-.17l1.46-3A.32.32,0,0,1,26.89,12.84Z"/></g></g></svg>