<svg xmlns="http://www.w3.org/2000/svg" viewBox="0 0 92.2 92.2"><defs><style>.cls-1{fill:none;stroke:#ce8a32;stroke-miterlimit:10;stroke-width:2px;}</style></defs><title>dinero</title><g id="Capa_2" data-name="Capa 2"><g id="Grid_Template" data-name="Grid Template"><path class="cls-1" d="M54,31.4H38.16L33.62,20.05c2.27,0,4.54,0,6.81,2.27,1-1.3,2.26-2.27,5.67-2.32s4.56.75,5.67,2.32c2.27-2.27,4.54-2.27,6.81-2.27Z"/><path class="cls-1" d="M54,31.4H38.16c-4.54,4.54-11.35,12.51-11.35,20.43A20.41,20.41,0,0,0,46.1,72.2,20.41,20.41,0,0,0,65.39,51.83C65.39,43.91,58.58,35.94,54,31.4Z"/><path class="cls-1" d="M40.65,46.15a5.45,5.45,0,0,1,10.9,0"/><path class="cls-1" d="M51.55,55.23a5.45,5.45,0,0,1-10.9,0"/><path class="cls-1" d="M40.65,46.15c0,3.63,1.86,4.54,5.45,4.54,3.26,0,5.45.91,5.45,4.54"/><circle class="cls-1" cx="46.1" cy="46.1" r="45.1"/></g></g></svg>