<svg xmlns="http://www.w3.org/2000/svg" viewBox="0 0 71.29 71.29"><defs><style>.cls-1{fill:#9e9e9e;}.cls-2{fill:none;stroke:#fff;stroke-linecap:round;stroke-linejoin:round;}</style></defs><title>Recurso 2</title><g id="Capa_2" data-name="Capa 2"><g id="Grid_Template" data-name="Grid Template"><circle class="cls-1" cx="35.64" cy="35.64" r="35.64"/><path class="cls-2" d="M49.35,18.81H25.93a4.38,4.38,0,0,0-4.39,4.39V52.48l2.93-2.93,2.93,2.93,2.92-2.93,2.87,2.93,3-2.93,2.93,2.93L42,49.55,45,52.48V23.2"/><path class="cls-2" d="M53.75,23.2v2.93H45V23.2a4.42,4.42,0,0,1,4.39-4.39A4.39,4.39,0,0,1,53.75,23.2Z"/><path class="cls-2" d="M30.32,39.3s0,2.93,4.12,2.93c5.15,0,5.15-7,0-8s-5.16-8,0-8a3,3,0,0,1,3.2,2.93"/><line class="cls-2" x1="34.72" y1="23.2" x2="34.72" y2="26.13"/><line class="cls-2" x1="34.72" y1="42.23" x2="34.72" y2="45.16"/></g></g></svg>