<svg xmlns="http://www.w3.org/2000/svg" viewBox="0 0 71.29 71.29"><defs><style>.cls-1{fill:#9e9e9e;}.cls-2{fill:#fff;}</style></defs><title>Recurso 1</title><g id="Capa_2" data-name="Capa 2"><g id="Capa_4" data-name="Capa 4"><circle class="cls-1" cx="35.64" cy="35.64" r="35.64"/><path class="cls-2" d="M46.68,20.3a14.3,14.3,0,0,0-9.51-1.38c-3.15.56-5.54,1.89-6.27,3.49s1.64,8.32,3.71,9.9c.22.25,1.79,1.11,3-3.68l.06-.23A4.2,4.2,0,0,1,40.14,25l.14-.05a4.25,4.25,0,0,1,4.22,1,4.48,4.48,0,0,1,1,4.62c-1.29,4.47-5.34,13.7-9.65,13.7h-.25C30.29,43.81,25.37,32,24.43,29.65l-.16-.38h0a2.22,2.22,0,0,0-2.88-1.51,2.79,2.79,0,0,0-1,.95A6.57,6.57,0,0,0,20,33.83c2.15,8,5.47,12.77,11.13,16.14,2.41,1.44,4.58,1.86,6.62,1.29l.1,0c.28-.08,7.3-2.24,12.67-15.94l.08-.2C51.66,31.78,53.46,23.62,46.68,20.3Z"/></g></g></svg>