<svg xmlns="http://www.w3.org/2000/svg" viewBox="0 0 90.2 90.2"><defs><style>.cls-1{fill:#606060;}.cls-2{fill:#3ea656;}.cls-3,.cls-4{fill:none;stroke:#fdfefe;}.cls-3{stroke-miterlimit:10;}.cls-4{stroke-linecap:round;stroke-linejoin:round;}</style></defs><title>Recurso 7</title><g id="Capa_2" data-name="Capa 2"><g id="Capa_4" data-name="Capa 4"><circle class="cls-1" cx="45.1" cy="45.1" r="45.1"/><circle class="cls-2" cx="45.1" cy="45.1" r="45.1"/><g id="call"><path class="cls-3" d="M41.17,35.69l-.21.23c-.62.72-.31,1.8.11,3,1.31,3.68,5,7.34,8.27,9.09a2.59,2.59,0,0,0,3,0l.23-.21a2.72,2.72,0,0,1,2.75-.72c.6.25,1.12.5,2,.86a3,3,0,0,1,2,3,11.67,11.67,0,0,1-1.49,3.64c-.49.9-1.92,1.17-3.4.73-12-3.6-17.46-10.92-20.77-21.21-.47-1.47-.26-2.9.62-3.42a7.23,7.23,0,0,1,3.59-1.6A3.23,3.23,0,0,1,40.93,31c.31.57.5,1.24.77,1.83A2.89,2.89,0,0,1,41.17,35.69Z"/><path class="cls-4" d="M32.62,64.57,20.61,68,24,56a24.53,24.53,0,1,1,8.59,8.59Z"/></g></g></g></svg>