<svg xmlns="http://www.w3.org/2000/svg" viewBox="0 0 151.6 108.42"><defs><style>.cls-1{fill:#fafcfd;}.cls-1,.cls-4{stroke:#455883;stroke-linecap:round;stroke-linejoin:round;}.cls-2{fill:#edd790;}.cls-3{fill:#7d59a0;}.cls-4{fill:#de8b2e;}</style></defs><title>cama</title><g id="Capa_2" data-name="Capa 2"><g id="Grid_Template" data-name="Grid Template"><path class="cls-1" d="M84.53.5H147a4.13,4.13,0,0,1,4.13,4.13V88a5.32,5.32,0,0,1-5.32,5.32H85.72A5.32,5.32,0,0,1,80.4,88V4.63A4.13,4.13,0,0,1,84.53.5Z" transform="translate(231.49 93.8) rotate(-180)"/><line class="cls-1" x1="115.77" y1="0.5" x2="115.77" y2="92.31"/><path class="cls-1" d="M140.85,93.3h0A2.66,2.66,0,0,1,143.51,96V99a0,0,0,0,1,0,0h-5.32a0,0,0,0,1,0,0V96A2.66,2.66,0,0,1,140.85,93.3Z" transform="translate(281.7 192.34) rotate(-180)"/><path class="cls-2" d="M89.6,93.3h0A2.66,2.66,0,0,1,92.26,96V99a0,0,0,0,1,0,0H86.94a0,0,0,0,1,0,0V96A2.66,2.66,0,0,1,89.6,93.3Z" transform="translate(179.2 192.34) rotate(-180)"/><path class="cls-3" d="M86,97.07V93.3a1,1,0,0,1,1-1h5.32a1,1,0,0,1,1,1v3.77a3,3,0,0,1-3,3H88.92A3,3,0,0,1,86,97.07Zm2-2.79v2.79a1,1,0,0,0,1,1h1.37a1,1,0,0,0,1-1V94.28Z"/><path class="cls-1" d="M14.73,56.6c36.62-13.14,58.63-12.83,95.05,0a4.65,4.65,0,0,1,3.27,4.27V88.71H11.49V60.86A4.63,4.63,0,0,1,14.73,56.6Z"/><rect class="cls-1" x="0.5" y="87.43" width="123.54" height="14.93" rx="3.67" transform="translate(124.54 189.78) rotate(-180)"/><path class="cls-4" d="M3.12,74.71H121.42a0,0,0,0,1,0,0v0A12.72,12.72,0,0,1,108.7,87.43H15.84A12.72,12.72,0,0,1,3.12,74.71v0a0,0,0,0,1,0,0Z" transform="translate(124.54 162.13) rotate(-180)"/><path class="cls-1" d="M66.2,65.73h36.9a0,0,0,0,1,0,0v0a9,9,0,0,1-9,9h-19a9,9,0,0,1-9-9v0A0,0,0,0,1,66.2,65.73Z" transform="translate(169.3 140.43) rotate(-180)"/><path class="cls-1" d="M21.44,65.73h36.9a0,0,0,0,1,0,0v0a9,9,0,0,1-9,9h-19a9,9,0,0,1-9-9v0A0,0,0,0,1,21.44,65.73Z" transform="translate(79.78 140.43) rotate(-180)"/><path class="cls-1" d="M113.12,102.35h3a5.57,5.57,0,0,1,5.57,5.57v0a0,0,0,0,1,0,0H107.55a0,0,0,0,1,0,0v0A5.57,5.57,0,0,1,113.12,102.35Z" transform="translate(229.24 210.27) rotate(180)"/><path class="cls-1" d="M8.43,102.35h3A5.57,5.57,0,0,1,17,107.92v0a0,0,0,0,1,0,0H2.86a0,0,0,0,1,0,0v0A5.57,5.57,0,0,1,8.43,102.35Z" transform="translate(19.85 210.27) rotate(180)"/><line class="cls-1" x1="119.07" y1="42.02" x2="119.07" y2="51.78"/><line class="cls-1" x1="113.11" y1="42.02" x2="113.11" y2="51.78"/></g></g></svg>