<svg xmlns="http://www.w3.org/2000/svg" viewBox="0 0 113.89 110.85"><defs><style>.cls-1{fill:#fafcfd;}.cls-1,.cls-2{stroke:#455883;stroke-linecap:round;stroke-linejoin:round;}.cls-2,.cls-5{fill:#de8b2e;}.cls-3{fill:#eee;}.cls-4{fill:#626f7f;}.cls-6{fill:#fff;}.cls-7{fill:#88c08e;}</style></defs><title>tiempo</title><g id="Capa_2" data-name="Capa 2"><g id="Grid_Template" data-name="Grid Template"><path class="cls-1" d="M.5,29.22h97a0,0,0,0,1,0,0V86.81A6.17,6.17,0,0,1,91.3,93H6.67A6.17,6.17,0,0,1,.5,86.81V29.22A0,0,0,0,1,.5,29.22Z"/><path class="cls-2" d="M97.47,29.22H.5V16.57a3.38,3.38,0,0,1,3.38-3.38H94.09a3.39,3.39,0,0,1,3.38,3.38Z"/><path class="cls-3" d="M12.14,52.22H11.4a4,4,0,0,1-4-4h0a4,4,0,0,1,4-4h.74a4,4,0,0,1,4,4h0A4,4,0,0,1,12.14,52.22Z"/><path class="cls-3" d="M24.54,52.22H23.8a4,4,0,0,1-4-4h0a4,4,0,0,1,4-4h.74a4,4,0,0,1,4,4h0A4,4,0,0,1,24.54,52.22Z"/><path class="cls-3" d="M37,52.22h-.74a4,4,0,0,1-4-4h0a4,4,0,0,1,4-4H37a4,4,0,0,1,4,4h0A4,4,0,0,1,37,52.22Z"/><path class="cls-3" d="M49.35,52.22h-.74a4,4,0,0,1-4-4h0a4,4,0,0,1,4-4h.74a4,4,0,0,1,4,4h0A4,4,0,0,1,49.35,52.22Z"/><path class="cls-3" d="M61.76,52.22H61a4,4,0,0,1-4-4h0a4,4,0,0,1,4-4h.74a4,4,0,0,1,4,4h0A4,4,0,0,1,61.76,52.22Z"/><path class="cls-3" d="M74.16,52.22h-.74a4,4,0,0,1-4-4h0a4,4,0,0,1,4-4h.74a4,4,0,0,1,4,4h0A4,4,0,0,1,74.16,52.22Z"/><path class="cls-3" d="M86.57,52.22h-.74a4,4,0,0,1-4-4h0a4,4,0,0,1,4-4h.74a4,4,0,0,1,4,4h0A4,4,0,0,1,86.57,52.22Z"/><path class="cls-3" d="M12.14,63.71H11.4a4,4,0,0,1-4-4h0a4,4,0,0,1,4-4h.74a4,4,0,0,1,4,4h0A4,4,0,0,1,12.14,63.71Z"/><path class="cls-3" d="M24.54,63.71H23.8a4,4,0,0,1-4-4h0a4,4,0,0,1,4-4h.74a4,4,0,0,1,4,4h0A4,4,0,0,1,24.54,63.71Z"/><path class="cls-3" d="M37,63.71h-.74a4,4,0,0,1-4-4h0a4,4,0,0,1,4-4H37a4,4,0,0,1,4,4h0A4,4,0,0,1,37,63.71Z"/><path class="cls-3" d="M49.35,63.71h-.74a4,4,0,0,1-4-4h0a4,4,0,0,1,4-4h.74a4,4,0,0,1,4,4h0A4,4,0,0,1,49.35,63.71Z"/><path class="cls-3" d="M61.76,63.71H61a4,4,0,0,1-4-4h0a4,4,0,0,1,4-4h.74a4,4,0,0,1,4,4h0A4,4,0,0,1,61.76,63.71Z"/><path class="cls-3" d="M74.16,63.71h-.74a4,4,0,0,1-4-4h0a4,4,0,0,1,4-4h.74a4,4,0,0,1,4,4h0A4,4,0,0,1,74.16,63.71Z"/><path class="cls-3" d="M86.57,63.71h-.74a4,4,0,0,1-4-4h0a4,4,0,0,1,4-4h.74a4,4,0,0,1,4,4h0A4,4,0,0,1,86.57,63.71Z"/><path class="cls-3" d="M12.14,74.92H11.4a4,4,0,0,1-4-4h0a4,4,0,0,1,4-4h.74a4,4,0,0,1,4,4h0A4,4,0,0,1,12.14,74.92Z"/><path class="cls-3" d="M24.54,74.92H23.8a4,4,0,0,1-4-4h0a4,4,0,0,1,4-4h.74a4,4,0,0,1,4,4h0A4,4,0,0,1,24.54,74.92Z"/><path class="cls-3" d="M37,74.92h-.74a4,4,0,0,1-4-4h0a4,4,0,0,1,4-4H37a4,4,0,0,1,4,4h0A4,4,0,0,1,37,74.92Z"/><path class="cls-3" d="M49.35,74.92h-.74a4,4,0,0,1-4-4h0a4,4,0,0,1,4-4h.74a4,4,0,0,1,4,4h0A4,4,0,0,1,49.35,74.92Z"/><path class="cls-3" d="M61.76,74.92H61a4,4,0,0,1-4-4h0a4,4,0,0,1,4-4h.74a4,4,0,0,1,4,4h0A4,4,0,0,1,61.76,74.92Z"/><path class="cls-3" d="M74.16,74.92h-.74a4,4,0,0,1-4-4h0a4,4,0,0,1,4-4h.74a4,4,0,0,1,4,4h0A4,4,0,0,1,74.16,74.92Z"/><path class="cls-3" d="M86.57,74.92h-.74a4,4,0,0,1-4-4h0a4,4,0,0,1,4-4h.74a4,4,0,0,1,4,4h0A4,4,0,0,1,86.57,74.92Z"/><rect class="cls-3" x="7.43" y="78.19" width="8.68" height="7.94" rx="3.97"/><rect class="cls-3" x="19.83" y="78.19" width="8.68" height="7.94" rx="3.97"/><rect class="cls-3" x="32.24" y="78.19" width="8.68" height="7.94" rx="3.97"/><rect class="cls-3" x="44.64" y="78.19" width="8.68" height="7.94" rx="3.97"/><rect class="cls-3" x="57.05" y="78.19" width="8.68" height="7.94" rx="3.97"/><rect class="cls-3" x="32.24" y="32.93" width="8.68" height="7.94" rx="3.97"/><rect class="cls-3" x="44.64" y="32.93" width="8.68" height="7.94" rx="3.97"/><rect class="cls-3" x="57.05" y="32.93" width="8.68" height="7.94" rx="3.97"/><rect class="cls-3" x="69.45" y="32.93" width="8.68" height="7.94" rx="3.97"/><rect class="cls-3" x="81.86" y="32.93" width="8.68" height="7.94" rx="3.97"/><circle class="cls-4" cx="49.02" cy="1.47" r="1.47"/><circle class="cls-1" cx="28.2" cy="20.43" r="2.77"/><circle class="cls-1" cx="70.27" cy="20.43" r="2.77"/><path class="cls-4" d="M28,18.56l6.56-6.07,9.87-9.14A12,12,0,0,1,47.3,1a4.46,4.46,0,0,1,4.86.93l.7.65L62,11.06c2.6,2.41,5.16,4.88,7.82,7.24l.13.12c.21.2.84-.08.61-.29l-6.9-6.39L53.83,2.63A7.8,7.8,0,0,0,50.09.25c-2.08-.4-3.75.62-5.21,2l-9.2,8.52-5.19,4.8c-1,.9-2,1.76-2.93,2.71a.86.86,0,0,1-.14.13c-.3.28.35.37.56.18Z"/><path class="cls-5" d="M55,46.63a6.62,6.62,0,0,1-2.84,6.65,5.78,5.78,0,0,1-6.24-.21,6.67,6.67,0,0,1-.15-11,5.93,5.93,0,0,1,7.14.79c.3.26,1.52-.25,1.25-.48C49.91,38.72,42.49,41,41.6,46.7a7,7,0,0,0,2.85,6.74,7.76,7.76,0,0,0,7.38.64,7.2,7.2,0,0,0,4.46-7.8c-.06-.34-1.4,0-1.34.35Z"/><path class="cls-5" d="M44.41,45.74a20.63,20.63,0,0,1,5.1,4.15c.24.27.93,0,1.15-.17,1.9-1.7,3-4.6,5.35-5.7.85-.39.07-.76-.51-.5-2.74,1.26-3.77,4.11-5.9,6l1.15-.16a21.17,21.17,0,0,0-5.26-4.26c-.35-.2-1.59.32-1.08.62Z"/><path class="cls-5" d="M30.27,70.92a6.48,6.48,0,0,1-3.74,5.87,6,6,0,0,1-6.07-1.1c-3.47-2.9-3.08-8.91,1.17-10.92a6.07,6.07,0,0,1,6.7,1.42c.28.27,1.52-.22,1.26-.48-3.9-3.78-11.17-2-12.61,3.35a7,7,0,0,0,2.07,7,7.53,7.53,0,0,0,7.15,1.43,7.33,7.33,0,0,0,5.41-6.91c0-.28-1.33-.08-1.34.36Z"/><path class="cls-5" d="M19.32,69.34a20.82,20.82,0,0,1,5.1,4.15c.24.27.93,0,1.15-.17,1.9-1.7,2.95-4.6,5.35-5.7.85-.39.07-.76-.51-.49-2.74,1.25-3.77,4.1-5.9,6L25.66,73a21.35,21.35,0,0,0-5.26-4.25c-.35-.21-1.59.32-1.08.61Z"/><circle class="cls-1" cx="89.78" cy="86.74" r="23.61"/><circle class="cls-6" cx="89.78" cy="86.74" r="21.19"/><path class="cls-4" d="M89.3,104.82v3.51c0,.3,1,.12,1-.25v-3.52c0-.29-1-.11-1,.26Z"/><path class="cls-4" d="M89.3,65.41V69c0,.11,1,0,1-.26V65.15c0-.11-1,0-1,.26Z"/><path class="cls-4" d="M71.43,86.66H68.49c-.2,0-.54,0-.63.27s.07.35.28.35h2.94c.2,0,.54-.06.63-.28s-.07-.34-.28-.34Z"/><path class="cls-4" d="M111.43,86.71h-3.2c-.35,0-1,.52-.38.52h3.21c.34,0,1-.52.37-.52Z"/><path class="cls-4" d="M103.33,96.23a.5.5,0,0,1-.26-.08L89,87.07a.48.48,0,1,1,.52-.8l14,9.08a.48.48,0,0,1,.14.66A.49.49,0,0,1,103.33,96.23Z"/><path class="cls-4" d="M90.48,86.52a.44.44,0,0,1-.43.13c-.24-.09-.33-.46-.2-.83l4.76-13.18c.13-.37.44-.6.68-.51s.33.46.19.83L90.73,86.13A1,1,0,0,1,90.48,86.52Z"/><circle class="cls-7" cx="89.78" cy="86.74" r="2.36"/></g></g></svg>