<svg id="Layer_1" data-name="Layer 1" xmlns="http://www.w3.org/2000/svg" viewBox="0 0 144.77 163.4"><defs><style>.cls-1{fill:#fff;}.cls-2{fill:#ea960f;}</style></defs><title>vico_marker</title><path class="cls-1" d="M61.6,35.12c0-.26,0-.55,0-.84s0-.78-.07-1.17-.07-.79-.12-1.18l-.12-.8-.06-.37c0-.18-.07-.36-.1-.55-.16-.79-.36-1.56-.58-2.32l-.15-.47-.09-.28c-.06-.18-.13-.36-.19-.53s-.13-.36-.2-.54-.05-.13-.08-.2c-.13-.33-.27-.65-.41-1l-.06-.14a26.21,26.21,0,0,0-1.91-3.44l-.26-.38a25.2,25.2,0,0,0-2.52-3.13c-.29-.3-.6-.6-.91-.89l-.21-.2-.18-.17-.23-.19L53,16.22l-.32-.28-.15-.13-.18-.14-.16-.13L52,15.4l-.17-.14-.15-.11L51.5,15l-.22-.17-.2-.14-.87-.6L50,14l-.25-.16-.26-.16L49,13.4l0,0-.48-.28-.28-.15-.54-.28-.34-.17-.24-.11-.22-.11L46.33,12l-.28-.11-.28-.12-.29-.11-.28-.11-.29-.1a26.79,26.79,0,0,0-2.78-.81l-.42-.09-.11,0h0l-.15,0,.09,0-.3-.06h0l-.22,0,.08,0-.17,0a5.43,5.43,0,0,0-.56-.09A24.38,24.38,0,0,0,36.48,10h-.31a29.69,29.69,0,0,0-4.6.69,21.33,21.33,0,0,0-2.49.82,22.67,22.67,0,0,0-2.16.93h0a25.34,25.34,0,0,0-3.29,1.94A28.84,28.84,0,0,0,21,16.54Q19.69,17.7,18.55,19l.16.14c.53-.54,1.08-1.05,1.65-1.55l.1-.1.23-.21L21,17l.28-.24.37-.29.3-.22.26-.21.06,0,.25-.18.19-.14.26-.19.33-.23.38-.25.6-.37.37-.22.24-.14.59-.32.48-.25.53-.25.33-.15.11-.05.52-.23a23.35,23.35,0,0,1,8.24-1.76h.74a23.51,23.51,0,1,1-21,34.09,5.57,5.57,0,0,1-.52-4.06l.71-.88c.44-.55,1.24-1.37,1.5-1.69l.73-.94c.28-.37.55-.74.78-1.09l.58-.86c.32-.5.63-1,.92-1.52l.18-.3a5.2,5.2,0,0,0,1.3.4l.26,0,.26,0a3.13,3.13,0,0,0,.53,0,1.93,1.93,0,0,0,.53-.11l0-.1a6.48,6.48,0,0,1-.88-.29,9.37,9.37,0,0,1-.86-.38c-.23-.12-.47-.25-.7-.39l.23-.41c.55-1,1.05-2.1,1.51-3.19.16-.38.32-.78.47-1.17.75-1.65,1.45-3.61,2-4.57s1.53-1.33,3.5,2.13A9.36,9.36,0,0,0,30.33,28a6.62,6.62,0,0,0,1.22.74l.14-.25h0s-.3-.23-.91-.8c-.74-.77-1.13-1-2.68-3.93-.61-1.17-3-4.65-5,1.4,0,0-1.7,4-3.4,7.32-.21-.16-.42-.34-.62-.52s-.43-.44-.64-.68a8.2,8.2,0,0,1-.58-.74c-.09-.12-.17-.25-.26-.38l-.12-.2-.12-.2-.09.05a3.13,3.13,0,0,0,.14,1.05c0,.08.05.16.08.25l.09.24.05.12.06.11.12.23a5.32,5.32,0,0,0,1.36,1.55l.05,0,0,0A34.1,34.1,0,0,1,17,36.72l-2.18,2.44c-.23.22-.45.47-.68.73s-.31.36-.45.54l-.1.12a5.24,5.24,0,0,0-.29.64l0,.08c-.33.73-.39,2.09.48,4.37.18.47.4,1,.66,1.54l0,0,.06.12s0,0,0,.05c.21.37.42.73.65,1.08l0,0,.22.35c.24.36.48.71.73,1.06l0,0q.38.52.78,1l.26.31,0,0c.27.31.54.62.81.91l.06.06.27.28A25.14,25.14,0,0,0,61.6,35.12Z"/><path class="cls-1" d="M50.73,37.62a.57.57,0,0,0-.1-.13l-.11-.12-.06-.07-.07-.06a1.92,1.92,0,0,0-.69-.4,2.08,2.08,0,0,0-.78-.11,2.6,2.6,0,0,0-.62.11,3.19,3.19,0,0,0-.48.19,6.06,6.06,0,0,0-.73.43c-.21.15-.4.31-.58.46a5.68,5.68,0,0,0-.51.47c-.17.16-.32.32-.47.49-.3.32-.58.65-.85,1s-.54.68-.78,1c-.13.17-.25.35-.38.53l-.18.28,0,0,0,0,0,0-.07.1-.3.36-.06.06,0-.18-.09-.51c-.05-.35-.1-.72-.13-1.09l-.09-1.13c0-.38-.05-.78-.06-1.17,0-.79-.07-1.59-.11-2.42,0-.21,0-.42,0-.64s0-.44-.06-.69l-.09-.63,0-.32L42,33.24c0-.21-.07-.42-.11-.64L41.79,32c0-.11,0-.23-.07-.33l-.09-.32,0-.17L41.54,31l-.1-.33a3.38,3.38,0,0,0-.11-.34L41.21,30l-.14-.35,0-.09,0-.09-.08-.18,0-.09a.47.47,0,0,0,0-.1l-.1-.19-.06-.09,0-.05,0-.05-.13-.21,0,0,0-.05-.09-.12-.09-.11L40.08,28,40,28,40,27.89l-.17-.13,0,0-.06,0-.12-.08h0l-.38-.26-.33-.17a1.78,1.78,0,0,0-.36-.14,3.16,3.16,0,0,0-.74-.16l-.17,0h-.52a4.72,4.72,0,0,0-1.17.26,5.63,5.63,0,0,0-.94.42,8,8,0,0,0-.79.49c-.25.17-.48.35-.7.53a16.61,16.61,0,0,0-1.24,1.13c-.19.2-.38.39-.56.59l-.54.61c-.34.4-.68.82-1,1.24s-.63.86-.92,1.3c-.15.23-.3.45-.44.68l-.21.34-.19.34-1.49,2.64c-.5.86-1,1.72-1.54,2.54-.27.41-.55.81-.85,1.2a9.86,9.86,0,0,1-.93,1.12,5.55,5.55,0,0,1-1.08.91l-.15.08-.16.08-.16.07-.16.06a2.07,2.07,0,0,1-.7.09l-.05.2a2.15,2.15,0,0,0,.8,0,3.26,3.26,0,0,0,.75-.23,5.87,5.87,0,0,0,1.3-.83,11.13,11.13,0,0,0,1.12-1.05c.35-.37.68-.76,1-1.15,1.28-1.59,2.38-3.29,3.5-5,.13-.21.28-.42.42-.62s.29-.41.45-.61c.31-.4.62-.79.95-1.18A23.59,23.59,0,0,1,33.44,31a12.87,12.87,0,0,1,1.13-1,7.86,7.86,0,0,1,1.25-.81,4,4,0,0,1,.67-.28,2.65,2.65,0,0,1,.69-.15,2,2,0,0,1,.68.09l.15.06.15.08a1.39,1.39,0,0,1,.27.21l.08.05,0,0,.05,0,0,0,0,.05,0,.06,0,.05,0,.06a1.94,1.94,0,0,1,.15.24L39,30l.06.13.06.13,0,.07,0,.06.11.28.09.28.09.28.08.29,0,.14,0,.15.06.29c0,.1.05.19.07.29l.11.59c0,.2.07.4.1.59s0,.2,0,.3l0,.3.08.6c0,.39.06.79.09,1.19,0,.8.07,1.61.11,2.42s.1,1.62.2,2.42c0,.41.1.81.17,1.21A8.45,8.45,0,0,0,41,43.17a4.24,4.24,0,0,0,.23.59,2.46,2.46,0,0,0,.34.56,1.48,1.48,0,0,0,.26.24.87.87,0,0,0,.34.15.81.81,0,0,0,.38,0l.17,0,.09,0,.07,0a.53.53,0,0,0,.15-.08l.14-.08.26-.18a3.72,3.72,0,0,0,.48-.41,4.94,4.94,0,0,0,.78-1c0-.09.1-.18.16-.27l.15-.25.33-.51c.22-.33.45-.66.68-1A14.11,14.11,0,0,1,47.56,39a4.19,4.19,0,0,1,.45-.39,3.08,3.08,0,0,1,.48-.32,1.32,1.32,0,0,1,.51-.16.58.58,0,0,1,.44.13,1.54,1.54,0,0,1,.17.19s0,0,0,0a.09.09,0,0,1,0,.06l0,.06,0,.07a3.92,3.92,0,0,1,.16.56c.08.39.14.79.18,1.18l0,.3,0,.3c0,.2,0,.41,0,.61a9.9,9.9,0,0,0,.22,1.21,7,7,0,0,0,.38,1.17,4.81,4.81,0,0,0,.62,1.08,2.89,2.89,0,0,0,1,.81,2.61,2.61,0,0,0,1.23.28,3.18,3.18,0,0,0,.62-.06l.6-.15.29-.11.29-.11.55-.27-.1-.18-.57.17L55,45.6l-.28,0a3.19,3.19,0,0,1-1.11,0,2.1,2.1,0,0,1-.91-.34,2.39,2.39,0,0,1-.63-.71,3.91,3.91,0,0,1-.4-.94,7.53,7.53,0,0,1-.22-1.05,10,10,0,0,1-.09-1.1v-.28c0-.09,0-.14,0-.25v-.64A10,10,0,0,0,51.19,39a1,1,0,0,0,0-.17l0-.18,0-.19L51,38.3l0-.1,0-.12,0-.06V38l0,0s0,0,0,0l0-.06,0-.05v0Z"/><path class="cls-2" d="M37.6,0A35.05,35.05,0,0,0,2.26,34.79c0,28.05,31.69,54,31.69,54a5.55,5.55,0,0,0,6.74,0s31.69-26,31.69-54A35.05,35.05,0,0,0,37.6,0ZM18.38,52.58l-.27-.28-.06-.06c-.27-.29-.54-.6-.81-.91l0,0L16.94,51q-.4-.49-.78-1l0,0c-.25-.35-.49-.7-.73-1.06l-.22-.35,0,0c-.23-.35-.44-.71-.65-1.08,0,0,0,0,0-.05l-.06-.12,0,0c-.26-.56-.48-1.07-.66-1.54-.87-2.28-.81-3.64-.48-4.37l0-.08a5.24,5.24,0,0,1,.29-.64l.1-.12q.21-.27.45-.54c.23-.26.45-.51.68-.73L17,36.72a34.1,34.1,0,0,0,2.24-3.25l0,0-.05,0a5.32,5.32,0,0,1-1.36-1.55l-.12-.23-.06-.11-.05-.12-.09-.24c0-.09-.06-.17-.08-.25a3.13,3.13,0,0,1-.14-1.05l.09-.05.12.2.12.2c.09.13.17.26.26.38a8.2,8.2,0,0,0,.58.74c.21.24.45.49.64.68s.41.36.62.52c1.7-3.31,3.4-7.32,3.4-7.32,2-6.05,4.35-2.57,5-1.4C29.65,26.74,30,27,30.78,27.72c.61.57.91.8.91.8h0l-.14.25A6.62,6.62,0,0,1,30.33,28,9.36,9.36,0,0,1,28.45,26c-2-3.46-3-3-3.5-2.13s-1.29,2.92-2,4.57c-.15.39-.31.79-.47,1.17-.46,1.09-1,2.15-1.51,3.19l-.23.41c.23.14.47.27.7.39a9.37,9.37,0,0,0,.86.38,6.48,6.48,0,0,0,.88.29l0,.1a1.93,1.93,0,0,1-.53.11,3.13,3.13,0,0,1-.53,0l-.26,0-.26,0a5.2,5.2,0,0,1-1.3-.4l-.18.3c-.29.51-.6,1-.92,1.52l-.58.86c-.23.35-.5.72-.78,1.09l-.73.94c-.26.32-1.06,1.14-1.5,1.69l-.71.88a5.57,5.57,0,0,0,.52,4.06,23.53,23.53,0,1,0,21-34.09h-.74A23.35,23.35,0,0,0,27.41,13l-.52.23-.11.05-.33.15-.53.25-.48.25-.59.32-.24.14-.37.22-.6.37-.38.25-.33.23-.26.19-.19.14-.25.18-.06,0-.26.21-.3.22-.37.29L21,17l-.27.24-.23.21-.1.1c-.57.5-1.12,1-1.65,1.55L18.55,19q1.14-1.27,2.4-2.43a28.84,28.84,0,0,1,2.66-2.13,25.34,25.34,0,0,1,3.29-1.94h0a22.67,22.67,0,0,1,2.16-.93,21.33,21.33,0,0,1,2.49-.82,29.69,29.69,0,0,1,4.6-.69h.31a24.38,24.38,0,0,1,3.82.29,5.43,5.43,0,0,1,.56.09l.17,0-.08,0,.22,0h0l.3.06-.09,0,.15,0h0l.11,0,.42.09a26.79,26.79,0,0,1,2.78.81l.29.1.28.11.29.11.28.12.28.11.56.25.22.11.24.11.34.17.54.28.28.15.48.28,0,0,.49.28.26.16L50,14l.17.11.87.6.2.14.22.17.18.13.15.11.17.14.18.14.16.13.18.14.15.13.32.28.16.14.23.19.18.17.21.2c.31.29.62.59.91.89a25.2,25.2,0,0,1,2.52,3.13l.26.38a26.21,26.21,0,0,1,1.91,3.44l.06.14c.14.32.28.64.41,1,0,.07,0,.14.08.2s.14.36.2.54.13.35.19.53l.09.28.15.47c.22.76.42,1.53.58,2.32,0,.19.07.37.1.55l.06.37.12.8c.05.39.09.79.12,1.18s.06.78.07,1.17,0,.58,0,.84A25.14,25.14,0,0,1,18.38,52.58ZM50.85,37.81l0,.06s0,0,0,0l0,0V38l0,.06,0,.12,0,.1.06.2,0,.19,0,.18a1,1,0,0,1,0,.17,10,10,0,0,1,.12,1.34V41c0,.11,0,.16,0,.25v.28a10,10,0,0,0,.09,1.1,7.53,7.53,0,0,0,.22,1.05,3.91,3.91,0,0,0,.4.94,2.39,2.39,0,0,0,.63.71,2.1,2.1,0,0,0,.91.34,3.19,3.19,0,0,0,1.11,0l.28,0,.29-.08.57-.17.1.18-.55.27-.29.11-.29.11-.6.15a3.18,3.18,0,0,1-.62.06A2.61,2.61,0,0,1,52.34,46a2.89,2.89,0,0,1-1-.81,4.81,4.81,0,0,1-.62-1.08,7,7,0,0,1-.38-1.17,9.9,9.9,0,0,1-.22-1.21c0-.2,0-.41,0-.61l0-.3,0-.3c0-.39-.1-.79-.18-1.18a3.92,3.92,0,0,0-.16-.56l0-.07,0-.06a.09.09,0,0,0,0-.06s0,0,0,0a1.54,1.54,0,0,0-.17-.19.58.58,0,0,0-.44-.13,1.32,1.32,0,0,0-.51.16,3.08,3.08,0,0,0-.48.32,4.19,4.19,0,0,0-.45.39A14.11,14.11,0,0,0,46,40.86c-.23.32-.46.65-.68,1l-.33.51-.15.25c-.06.09-.11.18-.16.27a4.94,4.94,0,0,1-.78,1,3.72,3.72,0,0,1-.48.41l-.26.18-.14.08a.53.53,0,0,1-.15.08l-.07,0-.09,0-.17,0a.81.81,0,0,1-.38,0,.87.87,0,0,1-.34-.15,1.48,1.48,0,0,1-.26-.24,2.46,2.46,0,0,1-.34-.56,4.24,4.24,0,0,1-.23-.59A8.45,8.45,0,0,1,40.74,42c-.07-.4-.13-.8-.17-1.21-.1-.8-.15-1.62-.2-2.42s-.07-1.62-.11-2.42c0-.4,0-.8-.09-1.19l-.08-.6,0-.3c0-.1,0-.2,0-.3s-.06-.39-.1-.59l-.11-.59c0-.1,0-.19-.07-.29l-.06-.29,0-.15,0-.14-.08-.29-.09-.28-.09-.28-.11-.28,0-.06,0-.07-.06-.13L39,30,39,29.82a1.94,1.94,0,0,0-.15-.24l0-.06,0-.05,0-.06,0-.05,0,0-.05,0,0,0-.08-.05a1.39,1.39,0,0,0-.27-.21L38,28.91l-.15-.06a2,2,0,0,0-.68-.09,2.65,2.65,0,0,0-.69.15,4,4,0,0,0-.67.28,7.86,7.86,0,0,0-1.25.81,12.87,12.87,0,0,0-1.13,1,23.59,23.59,0,0,0-2.06,2.18c-.33.39-.64.78-.95,1.18-.16.2-.31.4-.45.61s-.29.41-.42.62c-1.12,1.69-2.22,3.39-3.5,5-.32.39-.65.78-1,1.15a11.13,11.13,0,0,1-1.12,1.05,5.87,5.87,0,0,1-1.3.83,3.26,3.26,0,0,1-.75.23,2.15,2.15,0,0,1-.8,0l.05-.2a2.07,2.07,0,0,0,.7-.09l.16-.06.16-.07.16-.08.15-.08a5.55,5.55,0,0,0,1.08-.91,9.86,9.86,0,0,0,.93-1.12c.3-.39.58-.79.85-1.2.54-.82,1-1.68,1.54-2.54l1.49-2.64.19-.34.21-.34c.14-.23.29-.45.44-.68.29-.44.59-.88.92-1.3s.66-.84,1-1.24l.54-.61c.18-.2.37-.39.56-.59a16.61,16.61,0,0,1,1.24-1.13c.22-.18.45-.36.7-.53a8,8,0,0,1,.79-.49,5.63,5.63,0,0,1,.94-.42,4.72,4.72,0,0,1,1.17-.26h.52l.17,0a3.16,3.16,0,0,1,.74.16,1.78,1.78,0,0,1,.36.14l.33.17.38.26h0l.12.08.06,0,0,0,.17.13L40,28l.06.06.12.12.09.11.09.12,0,.05,0,0,.13.21,0,.05,0,.05.06.09.1.19a.47.47,0,0,1,0,.1l0,.09.08.18,0,.09,0,.09.14.35.12.34a3.38,3.38,0,0,1,.11.34l.1.33.05.17,0,.17.09.32c0,.1.05.22.07.33l.13.64c0,.22.08.43.11.64l.06.32,0,.32.09.63c0,.25.05.47.06.69s0,.43,0,.64c0,.83.07,1.63.11,2.42,0,.39,0,.79.06,1.17l.09,1.13c0,.37.08.74.13,1.09l.09.51,0,.18.06-.06.3-.36.07-.1,0,0,0,0,0,0,.18-.28c.13-.18.25-.36.38-.53.24-.35.51-.7.78-1s.55-.67.85-1c.15-.17.3-.33.47-.49a5.68,5.68,0,0,1,.51-.47c.18-.15.37-.31.58-.46a6.06,6.06,0,0,1,.73-.43,3.19,3.19,0,0,1,.48-.19,2.6,2.6,0,0,1,.62-.11,2.08,2.08,0,0,1,.78.11,1.92,1.92,0,0,1,.69.4l.07.06.06.07.11.12a.57.57,0,0,1,.1.13l.08.12v0Z"/></svg>