<?xml version="1.0" standalone="no"?>
<!DOCTYPE svg PUBLIC "-//W3C//DTD SVG 20010904//EN"
 "http://www.w3.org/TR/2001/REC-SVG-20010904/DTD/svg10.dtd">
<svg version="1.0" xmlns="http://www.w3.org/2000/svg"
 width="500.000000pt" height="500.000000pt" viewBox="0 0 500.000000 500.000000"
 preserveAspectRatio="xMidYMid meet">
<metadata>
Created by potrace 1.11, written by Peter Selinger 2001-2013
</metadata>
<g transform="translate(0.000000,500.000000) scale(0.100000,-0.100000)"
fill="#000000" stroke="none">
<path d="M2968 4995 c-2 -1 -28 -5 -59 -8 -31 -4 -78 -11 -103 -17 -26 -6 -62
-13 -82 -16 -83 -13 -281 -66 -368 -99 -276 -103 -480 -254 -558 -412 -29 -59
-32 -73 -31 -157 0 -150 31 -308 103 -526 146 -445 399 -852 542 -875 87 -14
188 75 263 230 52 109 123 316 139 407 11 59 64 213 93 263 59 106 185 211
299 250 123 42 293 34 427 -20 128 -52 254 -171 313 -295 62 -131 81 -309 49
-464 -16 -79 -92 -317 -144 -456 -295 -778 -655 -1351 -991 -1580 -160 -108
-285 -134 -465 -96 -11 2 -45 14 -75 26 -248 98 -512 353 -777 750 -75 112
-173 269 -173 276 0 2 -10 21 -23 42 -118 188 -337 643 -487 1007 -99 242
-110 263 -173 322 -72 68 -126 87 -226 80 -93 -6 -129 -22 -196 -91 -101 -104
-155 -265 -158 -466 -3 -197 12 -283 99 -579 168 -570 383 -1029 658 -1401 39
-52 73 -97 76 -100 3 -3 29 -34 59 -70 82 -99 304 -316 417 -407 124 -100 383
-276 484 -327 41 -21 80 -42 85 -46 25 -18 206 -84 293 -107 135 -35 337 -40
471 -12 331 70 769 415 1152 909 186 240 431 643 573 945 186 395 267 601 322
814 20 75 37 147 39 161 2 14 10 59 18 100 9 41 18 100 21 130 3 30 9 89 13
130 14 142 8 423 -12 535 -39 222 -114 417 -223 580 -68 102 -221 252 -332
325 -108 71 -270 151 -414 204 -105 40 -315 100 -381 110 -22 3 -52 8 -66 11
-73 14 -200 23 -336 23 -83 0 -153 -1 -155 -3z"/>
</g>
</svg>
